<svg xmlns="http://www.w3.org/2000/svg" width="1080" height="1080" viewBox="0 0 1080 1080" role="img" aria-label="SPINDEX coming soon Instagram post">
  <defs>
    <linearGradient id="bg" x1="0" y1="0" x2="1080" y2="1080" gradientUnits="userSpaceOnUse">
      <stop offset="0" stop-color="#111823"/>
      <stop offset="1" stop-color="#06080b"/>
    </linearGradient>
    <filter id="softBlur">
      <feGaussianBlur stdDeviation="3"/>
    </filter>
    <filter id="accentGlow" x="-40%" y="-40%" width="180%" height="180%">
      <feGaussianBlur stdDeviation="6" result="blur"/>
      <feMerge>
        <feMergeNode in="blur"/>
        <feMergeNode in="SourceGraphic"/>
      </feMerge>
    </filter>
  </defs>

  <rect width="1080" height="1080" fill="url(#bg)"/>

  <g filter="url(#softBlur)" opacity="0.55">
    <rect x="84" y="118" width="912" height="762" rx="18" fill="#101721" stroke="#26303c" stroke-width="4"/>
    <rect x="84" y="118" width="912" height="70" rx="18" fill="#080b10"/>
    <text x="126" y="165" font-family="Bahnschrift, Orbitron, Segoe UI, Arial, sans-serif" font-size="32" font-weight="700" letter-spacing="0"><tspan fill="#dce5ee">s</tspan><tspan fill="#00e58f">p</tspan><tspan fill="#dce5ee">index</tspan></text>
    <rect x="590" y="140" width="64" height="18" rx="5" fill="#697481"/>
    <rect x="672" y="140" width="76" height="18" rx="5" fill="#697481"/>
    <rect x="766" y="140" width="86" height="18" rx="5" fill="#697481"/>
    <rect x="870" y="140" width="72" height="18" rx="5" fill="#697481"/>

    <rect x="126" y="238" width="828" height="228" rx="14" fill="#131a24" stroke="#26303c" stroke-width="3"/>
    <rect x="154" y="274" width="168" height="20" rx="7" fill="#6d7885"/>
    <rect x="154" y="318" width="412" height="34" rx="9" fill="#d9e1e9"/>
    <rect x="154" y="370" width="312" height="18" rx="6" fill="#7f8995"/>
    <rect x="154" y="404" width="220" height="18" rx="6" fill="#7f8995"/>
    <rect x="720" y="268" width="170" height="170" rx="85" fill="none" stroke="#7f8995" stroke-width="18"/>
    <path d="M740 302L870 430M870 302L740 430" stroke="#7f8995" stroke-width="30" stroke-linecap="square"/>

    <g>
      <rect x="126" y="514" width="190" height="160" rx="12" fill="#151d28" stroke="#26303c" stroke-width="3"/>
      <rect x="348" y="514" width="190" height="160" rx="12" fill="#151d28" stroke="#26303c" stroke-width="3"/>
      <rect x="570" y="514" width="190" height="160" rx="12" fill="#151d28" stroke="#26303c" stroke-width="3"/>
      <rect x="792" y="514" width="162" height="160" rx="12" fill="#151d28" stroke="#26303c" stroke-width="3"/>
      <circle cx="221" cy="568" r="30" fill="#7f8995"/>
      <circle cx="443" cy="568" r="30" fill="#7f8995"/>
      <circle cx="665" cy="568" r="30" fill="#7f8995"/>
      <circle cx="873" cy="568" r="30" fill="#7f8995"/>
      <rect x="158" y="624" width="126" height="16" rx="5" fill="#7f8995"/>
      <rect x="380" y="624" width="126" height="16" rx="5" fill="#7f8995"/>
      <rect x="602" y="624" width="126" height="16" rx="5" fill="#7f8995"/>
      <rect x="826" y="624" width="96" height="16" rx="5" fill="#7f8995"/>
    </g>

    <rect x="126" y="724" width="828" height="88" rx="12" fill="#151d28" stroke="#26303c" stroke-width="3"/>
    <rect x="156" y="756" width="260" height="16" rx="5" fill="#7f8995"/>
    <rect x="156" y="786" width="510" height="14" rx="5" fill="#697481"/>
  </g>

  <rect width="1080" height="1080" fill="#06080b" opacity="0.58"/>
  <rect x="84" y="118" width="912" height="762" rx="18" fill="none" stroke="#8b98a8" stroke-opacity="0.28" stroke-width="3"/>

  <g>
    <text x="540" y="414" text-anchor="middle" font-family="Bahnschrift, Orbitron, Segoe UI, Arial, sans-serif" font-size="86" font-weight="700" letter-spacing="0"><tspan fill="#e8eef4">s</tspan><tspan fill="#00e58f">p</tspan><tspan fill="#e8eef4">index</tspan></text>
    <text x="540" y="573" text-anchor="middle" fill="#e8eef4" font-family="Bahnschrift, Orbitron, Segoe UI, Arial, sans-serif" font-size="112" font-weight="800" letter-spacing="12">COMING</text>
    <text x="540" y="700" text-anchor="middle" fill="#00e58f" font-family="Bahnschrift, Orbitron, Segoe UI, Arial, sans-serif" font-size="112" font-weight="800" letter-spacing="12" filter="url(#accentGlow)">SOON</text>
  </g>
</svg>
